<svg enable-background="new 0 0 256 256" viewBox="0 0 256 256" xmlns="http://www.w3.org/2000/svg"><path d="m32.035 210.046c-7.535 0-13.665-6.13-13.665-13.665v-123.776c0-7.535 6.13-13.665 13.665-13.665h191.931c7.535 0 13.665 6.13 13.665 13.665v123.776c0 7.535-6.13 13.665-13.665 13.665z" fill="#cecece"/><path d="m223.965 58.94h-14.667c7.534 0 13.665 6.13 13.665 13.665v123.776c0 7.534-6.13 13.665-13.665 13.665h14.667c7.535 0 13.665-6.13 13.665-13.665v-123.776c0-7.534-6.13-13.665-13.665-13.665z" fill="#e2e2e2"/><path d="m32.035 58.94h14.667c-7.534 0-13.665 6.13-13.665 13.665v123.776c0 7.534 6.13 13.665 13.665 13.665h-14.667c-7.535 0-13.665-6.13-13.665-13.665v-123.776c0-7.534 6.13-13.665 13.665-13.665z" fill="#afafaf"/><path d="m229.221 72.629v123.728c0 2.916-2.364 5.28-5.28 5.28h-191.882c-2.916 0-5.28-2.364-5.28-5.28v-123.728c0-2.916 2.364-5.28 5.28-5.28h191.882c2.916 0 5.28 2.364 5.28 5.28z" fill="#63bce7"/><path d="m223.941 67.349h-14.667c2.916 0 5.28 2.364 5.28 5.28v123.728c0 2.916-2.364 5.28-5.28 5.28h14.667c2.916 0 5.28-2.364 5.28-5.28v-123.728c0-2.916-2.364-5.28-5.28-5.28z" fill="#63e2e7"/><path d="m32.059 67.349h14.667c-2.916 0-5.28 2.364-5.28 5.28v123.728c0 2.916 2.364 5.28 5.28 5.28h-14.667c-2.916 0-5.28-2.364-5.28-5.28v-123.728c0-2.916 2.364-5.28 5.28-5.28z" fill="#6377e7"/><path d="m128 210.046h-119.333l3.053 7.024c2.751 6.329 8.995 10.423 15.896 10.423h100.384 100.385c6.901 0 13.145-4.094 15.896-10.423l3.053-7.024z" fill="#cecece"/><path d="m232.667 210.046-3.053 7.024c-2.751 6.329-8.995 10.423-15.896 10.423h14.667c6.901 0 13.145-4.094 15.896-10.423l3.053-7.024z" fill="#e2e2e2"/><path d="m23.333 210.046 3.053 7.024c2.751 6.329 8.995 10.423 15.896 10.423h-14.667c-6.901 0-13.145-4.094-15.896-10.423l-3.053-7.024z" fill="#afafaf"/><path d="m82.442 210.046 4.22 5.388c1.649 2.106 4.175 3.336 6.85 3.336h68.975c2.675 0 5.201-1.23 6.85-3.336l4.221-5.388z" fill="#707070"/><circle cx="168.886" cy="151.198" fill="#cecece" r="34.507"/><circle cx="87.114" cy="151.198" fill="#f8af23" r="34.507"/><path d="m101.923 171.006h-29.618c-2.761 0-5-2.239-5-5v-29.618c0-2.761 2.239-5 5-5h29.618c2.761 0 5 2.239 5 5v29.618c0 2.762-2.239 5-5 5z" fill="#cecece"/><path d="m183.695 171.058h-29.618c-2.761 0-5-2.239-5-5v-29.618c0-2.761 2.239-5 5-5h29.618c2.761 0 5 2.239 5 5v29.618c0 2.762-2.239 5-5 5z" fill="#f46275"/><circle cx="128" cy="67.57" fill="#cecece" r="50.037"/><path d="m92.63 67.57c0-25.143 18.546-45.948 42.703-49.497-2.394-.352-4.841-.54-7.333-.54-27.635 0-50.037 22.402-50.037 50.037 0 27.634 22.402 50.037 50.037 50.037 2.492 0 4.939-.188 7.333-.54-24.157-3.549-42.703-24.354-42.703-49.497z" fill="#afafaf"/><circle cx="152.697" cy="66.343" fill="#f8af23" r="10.006"/><path d="m143.34 89.861-23.403-12.281v-22.484l23.403-12.282z" fill="#f8af23"/><path d="m143.34 42.814h9.357v47.047h-9.357z" fill="#f46275"/><path d="m100.254 55.096h19.683v22.494h-19.683z" fill="#cecece"/><path d="m88.482 60.712h11.772v11.252h-11.772z" fill="#f46275"/><path d="m105.754 77.589h8.682v17.596h-8.682z" fill="#cecece"/><g fill="#3f3679"><path d="m245.656 217.668 3.053-7.023c.202-.464.156-.998-.121-1.421-.277-.422-.749-.677-1.254-.677h-14.352c3.722-2.766 6.149-7.182 6.149-12.165v-123.777c0-8.362-6.803-15.165-15.165-15.165h-45.434c-4.72-23.583-25.581-41.407-50.531-41.407s-45.812 17.825-50.532 41.407h-45.434c-8.362 0-15.165 6.803-15.165 15.165v123.776c0 4.983 2.427 9.399 6.149 12.165h-14.352c-.505 0-.977.255-1.254.678-.277.422-.323.957-.121 1.42l3.053 7.023c1.517 3.491 4.013 6.351 7.08 8.325h-8.105c-.829 0-1.5.671-1.5 1.5s.671 1.5 1.5 1.5h18.295 200.77 18.295c.829 0 1.5-.671 1.5-1.5s-.671-1.5-1.5-1.5h-8.104c3.068-1.973 5.563-4.833 7.08-8.324zm-21.715-148.819c2.084 0 3.78 1.696 3.78 3.78v123.728c0 2.084-1.696 3.78-3.78 3.78h-191.882c-2.084 0-3.78-1.696-3.78-3.78v-123.728c0-2.084 1.696-3.78 3.78-3.78h44.437c.683 27.827 23.516 50.258 51.504 50.258s50.821-22.431 51.504-50.258zm-95.941-49.815c26.763 0 48.537 21.773 48.537 48.537s-21.774 48.536-48.537 48.536-48.537-21.774-48.537-48.537 21.774-48.536 48.537-48.536zm-108.13 177.347v-123.776c0-6.708 5.457-12.165 12.165-12.165h44.933c-.247 1.776-.401 3.58-.461 5.409h-44.448c-3.739 0-6.78 3.042-6.78 6.78v123.728c0 3.738 3.042 6.78 6.78 6.78h191.882c3.739 0 6.78-3.042 6.78-6.78v-123.728c0-3.739-3.042-6.78-6.78-6.78h-44.448c-.06-1.828-.214-3.633-.461-5.409h44.933c6.708 0 12.165 5.457 12.165 12.165v123.776c0 6.708-5.457 12.165-12.165 12.165h-50.407-91.116-50.407c-6.708 0-12.165-5.457-12.165-12.165zm150.608 15.165-2.321 2.963c-1.375 1.754-3.441 2.761-5.669 2.761h-68.975c-2.229 0-4.295-1.006-5.669-2.761l-2.321-2.963zm57.907 14.447h-200.77c-4.787 0-9.22-2.156-12.179-5.723h29.14c.829 0 1.5-.671 1.5-1.5s-.671-1.5-1.5-1.5h-31.098c-.132-.263-.264-.526-.383-.798l-2.141-4.925h21.081 49.677l3.77 4.813c1.947 2.486 4.874 3.911 8.031 3.911h68.975c3.157 0 6.084-1.425 8.031-3.911l3.77-4.813h49.677 21.081l-2.141 4.925c-.118.272-.25.535-.383.798h-31.098c-.829 0-1.5.671-1.5 1.5s.671 1.5 1.5 1.5h29.14c-2.96 3.567-7.394 5.723-12.18 5.723z"/><path d="m65.22 217.27h-10.375c-.829 0-1.5.671-1.5 1.5s.671 1.5 1.5 1.5h10.375c.829 0 1.5-.671 1.5-1.5s-.672-1.5-1.5-1.5z"/><path d="m201.155 217.27h-10.375c-.829 0-1.5.671-1.5 1.5s.671 1.5 1.5 1.5h10.375c.829 0 1.5-.671 1.5-1.5s-.671-1.5-1.5-1.5z"/><path d="m27.323 236.966h-18.003c-.829 0-1.5.671-1.5 1.5s.671 1.5 1.5 1.5h18.003c.829 0 1.5-.671 1.5-1.5s-.671-1.5-1.5-1.5z"/><path d="m246.68 236.966h-18.003c-.829 0-1.5.671-1.5 1.5s.671 1.5 1.5 1.5h18.003c.829 0 1.5-.671 1.5-1.5s-.671-1.5-1.5-1.5z"/><path d="m218.479 236.966h-180.958c-.829 0-1.5.671-1.5 1.5s.671 1.5 1.5 1.5h180.959c.829 0 1.5-.671 1.5-1.5s-.672-1.5-1.501-1.5z"/><path d="m132.879 151.198c0 19.854 16.153 36.007 36.007 36.007s36.007-16.153 36.007-36.007-16.153-36.007-36.007-36.007-36.007 16.153-36.007 36.007zm36.007-33.007c18.2 0 33.007 14.807 33.007 33.007s-14.807 33.007-33.007 33.007-33.007-14.807-33.007-33.007 14.807-33.007 33.007-33.007z"/><path d="m87.114 115.191c-19.854 0-36.007 16.153-36.007 36.007s16.153 36.007 36.007 36.007 36.007-16.153 36.007-36.007-16.153-36.007-36.007-36.007zm0 69.014c-18.2 0-33.007-14.807-33.007-33.007s14.807-33.007 33.007-33.007 33.007 14.807 33.007 33.007-14.807 33.007-33.007 33.007z"/><path d="m101.923 129.889h-29.618c-3.584 0-6.5 2.916-6.5 6.5v29.618c0 3.584 2.916 6.5 6.5 6.5h29.618c3.584 0 6.5-2.916 6.5-6.5v-29.618c0-3.584-2.916-6.5-6.5-6.5zm3.5 36.117c0 1.93-1.57 3.5-3.5 3.5h-29.618c-1.93 0-3.5-1.57-3.5-3.5v-29.618c0-1.93 1.57-3.5 3.5-3.5h29.618c1.93 0 3.5 1.57 3.5 3.5z"/><path d="m93.597 136.721c-5.013 0-9.091 4.078-9.091 9.091v1.911h-3.68c-.829 0-1.5.671-1.5 1.5s.671 1.5 1.5 1.5h3.68v13.452c0 .829.671 1.5 1.5 1.5s1.5-.671 1.5-1.5v-13.452h3.681c.829 0 1.5-.671 1.5-1.5s-.671-1.5-1.5-1.5h-3.681v-1.911c0-3.359 2.732-6.091 6.091-6.091.829 0 1.5-.671 1.5-1.5s-.672-1.5-1.5-1.5z"/><path d="m154.077 172.558h29.618c3.584 0 6.5-2.916 6.5-6.5v-29.618c0-3.584-2.916-6.5-6.5-6.5h-29.618c-3.584 0-6.5 2.916-6.5 6.5v29.618c0 3.584 2.916 6.5 6.5 6.5zm-3.5-36.118c0-1.93 1.57-3.5 3.5-3.5h29.618c1.93 0 3.5 1.57 3.5 3.5v29.618c0 1.93-1.57 3.5-3.5 3.5h-29.618c-1.93 0-3.5-1.57-3.5-3.5z"/><path d="m168.886 163.271c6.628 0 12.021-5.393 12.021-12.021s-5.393-12.021-12.021-12.021-12.021 5.393-12.021 12.021 5.393 12.021 12.021 12.021zm0-21.042c4.974 0 9.021 4.047 9.021 9.021s-4.047 9.021-9.021 9.021-9.021-4.047-9.021-9.021 4.047-9.021 9.021-9.021z"/><path d="m182.097 141.644c1.149 0 2.081-.932 2.081-2.081s-.932-2.081-2.081-2.081-2.081.932-2.081 2.081.931 2.081 2.081 2.081z"/><path d="m88.482 73.463h10.272v4.126c0 .829.671 1.5 1.5 1.5h4v16.096c0 .829.671 1.5 1.5 1.5h8.682c.829 0 1.5-.671 1.5-1.5v-16.096h3.649l23.058 12.1v-.007c.209.111.444.179.697.179h9.357c.829 0 1.5-.671 1.5-1.5v-12.122c5.636-.739 10.006-5.562 10.006-11.397s-4.369-10.658-10.006-11.397v-12.131c0-.829-.671-1.5-1.5-1.5h-9.357c-.253 0-.488.069-.697.179v-.007l-23.076 12.109h-19.314c-.829 0-1.5.671-1.5 1.5v4.116h-10.271c-.829 0-1.5.671-1.5 1.5v11.251c0 .83.671 1.501 1.5 1.501zm72.721-7.121c0 4.177-3.03 7.654-7.006 8.365v-16.73c3.976.712 7.006 4.188 7.006 8.365zm-16.363-22.028h6.357v44.047h-6.357zm-31.903 49.372h-5.682v-14.597h5.682zm28.903-6.306-20.403-10.707v-20.671l20.403-10.707zm-40.086-30.784h16.683v19.494h-4-8.682-4v-4.126-11.252-4.116zm-11.772 5.616h8.772v8.251h-8.772z"/></g></svg>